<svg width="40" height="40" viewBox="0 0 40 40" fill="none" xmlns="http://www.w3.org/2000/svg">
<path d="M11.1111 5.35106C11.1111 3.5003 12.6042 2 14.4444 2H17.7778V7.58511C17.7778 8.20226 18.2778 8.70213 18.8889 8.70213H21.1111C21.7222 8.70213 22.2222 8.20226 22.2222 7.58511V2H25.5556C27.3958 2 28.8889 3.5003 28.8889 5.35106V14.2872C28.8889 16.1373 27.3958 17.6383 25.5556 17.6383H14.4444C12.6042 17.6383 11.1111 16.1373 11.1111 14.2872V5.35106ZM6.66667 22.1064V27.6915C6.66667 28.3059 7.16667 28.8085 7.77778 28.8085H10C10.6111 28.8085 11.1111 28.3059 11.1111 27.6915V22.1064H14.4444C16.2847 22.1064 17.7778 23.6074 17.7778 25.4574V34.3936C17.7778 36.2437 16.2847 37.7447 14.4444 37.7447H3.33333C1.49236 37.7447 0 36.2437 0 34.3936V25.4574C0 23.6074 1.49236 22.1064 3.33333 22.1064H6.66667ZM28.8889 22.1064V27.6915C28.8889 28.3059 29.3889 28.8085 30 28.8085H32.2222C32.8333 28.8085 33.3333 28.3059 33.3333 27.6915V22.1064H36.6667C38.5069 22.1064 40 23.6074 40 25.4574V34.3936C40 36.2437 38.5069 37.7447 36.6667 37.7447H25.5556C23.7153 37.7447 22.2222 36.2437 22.2222 34.3936V25.4574C22.2222 23.6074 23.7153 22.1064 25.5556 22.1064H28.8889Z" fill="#DF0070"/>
</svg>
