<svg width="40" height="40" viewBox="0 0 40 40" fill="none" xmlns="http://www.w3.org/2000/svg">
<path d="M37.75 11.8234H26.25C25.0063 11.8234 24 12.8698 24 14.0947V33.2992C24 34.5241 25.0063 35.5152 26.25 35.5152H37.75C38.9938 35.5152 40 34.5241 40 33.2992V14.0947C40 12.8698 38.9938 11.8234 37.75 11.8234ZM36 31.5758H28V15.8182H36V31.5758ZM8 7.93939H28V9.90909H32V6.95455C32 5.32339 30.6562 4.00739 29.0075 4H6.99375C5.34375 4.00769 4 5.32339 4 6.95455V21.7273H1C0.445312 21.7273 0 22.1643 0 22.7121V23.697C0.0078125 25.8667 1.78875 27.629 3.9925 27.6364H22V21.7273H8V7.93939Z" fill="#DF0070"/>
</svg>
