<svg width="40" height="40" viewBox="0 0 40 40" fill="none" xmlns="http://www.w3.org/2000/svg">
<path d="M8.88889 13.25C8.88889 12.0055 9.88194 11 11.1111 11H20C21.2292 11 22.2222 12.0055 22.2222 13.25V20C22.2222 21.2445 21.2292 22.25 20 22.25H11.1111C9.88194 22.25 8.88889 21.2445 8.88889 20V13.25ZM20 24.5C22.4514 24.5 24.4444 22.482 24.4444 20V17.75H28.8889C30.1181 17.75 31.1111 18.7555 31.1111 20V26.75C31.1111 27.9945 30.1181 29 28.8889 29H20C18.7708 29 17.7778 27.9945 17.7778 26.75V24.5H20ZM2.22222 10.3953C0.89375 9.62188 0 8.1657 0 6.5C0 4.01445 1.98958 2 4.44444 2C6.08958 2 7.52778 2.90492 8.29167 4.25H31.7083C32.4722 2.90492 33.9097 2 35.5556 2C38.0069 2 40 4.01445 40 6.5C40 8.1657 39.1042 9.62188 37.7778 10.3953V29.6047C39.1042 30.3781 40 31.8336 40 33.5C40 35.982 38.0069 38 35.5556 38C33.9097 38 32.4722 37.093 31.7083 35.75H8.29167C7.52778 37.093 6.08958 38 4.44444 38C1.98958 38 0 35.982 0 33.5C0 31.8336 0.89375 30.3781 2.22222 29.6047V10.3953ZM8.29167 8.75C7.90278 9.43203 7.34028 10.0016 6.66667 10.3953V29.6047C7.34028 29.9984 7.90278 30.568 8.29167 31.25H31.7083C32.0972 30.568 32.6597 29.9984 33.3333 29.6047V10.3953C32.6597 10.0016 32.0972 9.43203 31.7083 8.75H8.29167Z" fill="#DF0070"/>
</svg>
