<svg width="40" height="40" viewBox="0 0 40 40" fill="none" xmlns="http://www.w3.org/2000/svg">
<g clip-path="url(#clip0_715_2672)">
<path d="M25.9219 17.5077C28.132 17.5077 30.2094 18.3663 31.7703 19.9272L33.3008 21.4577C36.4266 20.0718 38.8672 17.2936 39.6773 13.9069C40.1246 12.0382 40.0945 10.2288 39.6941 8.56316C39.49 7.71316 38.4105 7.42956 37.7926 8.04722L32.4097 13.43H26.5035V7.59363L31.8863 2.21081C32.5044 1.59269 32.2203 0.513156 31.3704 0.30925C29.7048 -0.0911406 27.8954 -0.121219 26.0266 0.326031C21.7063 1.35962 18.3399 5.03072 17.6516 9.41978C17.5391 10.0702 17.5156 10.703 17.5234 11.328L23.9906 17.8014C24.625 17.5858 25.2734 17.5077 25.9219 17.5077ZM30 21.7655C28.1906 19.9561 25.5023 19.6116 23.3289 20.6796L14.9297 12.3436V7.49909L5 -0.000124978L0 4.92956L7.5 14.8593L12.3469 14.8599L20.6828 23.188C19.6148 25.3614 19.9601 28.0497 21.7695 29.8591L30.9102 39.0075C32.0523 40.1403 33.8953 40.1403 35.0281 39.0074L39.1492 34.8863C40.282 33.7535 40.282 31.9113 39.1491 30.7683L30 21.7655ZM17.8047 23.9842L13.1797 19.3671L1.54688 30.9999C-0.513281 33.06 -0.513281 36.3968 1.54688 38.4569C2.575 39.4842 3.92266 39.9999 5.27344 39.9999C6.62422 39.9999 7.97188 39.4849 9.00156 38.4546L18.3063 29.1499C17.6172 27.5233 17.3906 25.7342 17.8047 23.9842ZM5 36.8749C3.96484 36.8749 3.125 36.035 3.125 34.9999C3.125 33.9639 3.96484 33.1249 5 33.1249C6.03516 33.1249 6.875 33.9608 6.875 34.9999C6.875 36.0389 6.03516 36.8749 5 36.8749Z" fill="#DF0070"/>
</g>
<defs>
<clipPath id="clip0_715_2672">
<rect width="40" height="40" fill="white"/>
</clipPath>
</defs>
</svg>
