<svg width="50" height="40" viewBox="0 0 50 40" fill="none" xmlns="http://www.w3.org/2000/svg">
<g clip-path="url(#clip0_2219_4216)">
<path d="M24.9922 25C29.4773 25 33.0469 21.3625 33.0469 16.875C33.0469 12.3875 29.4109 8.75 24.9922 8.75C20.507 8.75 16.9375 12.3875 16.9375 16.875C16.8672 21.3594 20.5078 25 24.9922 25ZM24.9922 12.5C27.4023 12.5 29.3641 14.4625 29.3641 16.875C29.3641 19.2875 27.3984 21.25 24.9922 21.25C22.5859 21.25 20.6172 19.2891 20.6172 16.875C20.6172 14.4609 22.5781 12.5 24.9922 12.5ZM40 12.5C43.4516 12.5 46.25 9.70156 46.25 6.25C46.25 2.79844 43.4531 0 40 0C36.5484 0 33.75 2.79844 33.75 6.25C33.75 9.70156 36.5469 12.5 40 12.5ZM28.8984 27.5H21.1016C14.9688 27.5 10 32.1641 10 37.9141C10 39.0703 10.9922 40 12.2188 40H37.7812C39.0078 40 40 39.0703 40 37.9141C40 32.1641 35.0312 27.5 28.8984 27.5ZM13.9141 36.25C14.732 33.3781 17.6141 31.25 21.0344 31.25H28.8984C32.318 31.25 35.2 33.3781 36.0187 36.25H13.9141ZM43.1172 15H38.2859C37.2859 15 36.3422 15.2373 35.4844 15.6438C35.5312 16.0547 35.6094 16.4531 35.6094 16.875C35.6094 19.5086 34.6109 21.8914 33.0188 23.75H48.6203C49.3828 23.75 50 23.0938 50 22.2891C50 18.2656 46.9219 15 43.1172 15ZM14.3672 16.875C14.3672 16.4493 14.4439 16.0445 14.4929 15.632C13.6406 15.1641 12.7031 15 11.7109 15H6.88125C3.08125 15 0 18.2656 0 22.2891C0 23.0938 0.616172 23.75 1.37656 23.75H16.9625C15.3672 21.8906 14.3672 19.5078 14.3672 16.875ZM10 12.5C13.4516 12.5 16.25 9.70156 16.25 6.25C16.25 2.79844 13.4531 0 10 0C6.54844 0 3.75 2.79844 3.75 6.25C3.75 9.70156 6.54844 12.5 10 12.5Z" fill="#DF0070"/>
</g>
<defs>
<clipPath id="clip0_2219_4216">
<rect width="50" height="40" fill="white"/>
</clipPath>
</defs>
</svg>
