<svg width="50" height="40" viewBox="0 0 50 40" fill="none" xmlns="http://www.w3.org/2000/svg">
<g clip-path="url(#clip0_2219_4218)">
<path d="M47.1875 9.92969H32.8125C31.2578 9.92969 30 11.2578 30 12.8125V37.1875C30 38.7422 31.2578 40 32.8125 40H47.1875C48.7422 40 50 38.7422 50 37.1875V12.8125C50 11.2578 48.7422 9.92969 47.1875 9.92969ZM45 35H35V15H45V35ZM10 5H35V7.5H40V3.75C40 1.67969 38.3203 0.009375 36.2594 0H8.74219C6.67969 0.00976562 5 1.67969 5 3.75V22.5H1.25C0.556641 22.5 0 23.0547 0 23.75V25C0.00976562 27.7539 2.23594 29.9906 4.99062 30H27.5V22.5H10V5Z" fill="#DF0070"/>
</g>
<defs>
<clipPath id="clip0_2219_4218">
<rect width="50" height="40" fill="white"/>
</clipPath>
</defs>
</svg>
