<svg width="50" height="40" viewBox="0 0 50 40" fill="none" xmlns="http://www.w3.org/2000/svg">
<path d="M26.1406 16.9844L23.7969 19.132C20.625 22.0391 17.0156 20.0625 15.8516 18.7969C13.75 16.5 13.9141 12.9453 16.1953 10.8516L22.5859 5H22.0703C17.5547 5 13.2109 6.79297 10.0156 9.98438L2.5 10.0078C1.125 10.0078 0 11.132 0 12.5063V24.9906C0 26.3648 1.125 27.4938 2.42969 27.4938L11.3594 27.489L18.4297 33.8812C20.5781 35.6289 23.7227 35.2961 25.4609 33.1582L26.8766 34.3496C28.1172 35.2949 29.9531 35.1699 30.9688 33.9301L33.4203 30.9145L33.8402 31.2659C34.9144 32.1253 36.487 31.9692 37.3558 30.895L38.1039 29.9708C38.9695 28.9004 38.8054 27.334 37.7366 26.4661L26.1406 16.9844ZM47.5 10.0078L40 9.99799C36.7984 6.79799 32.4562 5.00737 27.9297 5.00737L27.2578 5C26.6328 5 26.0375 5.24977 25.5688 5.66938L17.8906 12.6797C17.8828 12.6953 17.875 12.7109 17.875 12.7109C16.5625 13.9453 16.5938 15.8828 17.7031 17.0859C18.4551 17.9062 20.4375 18.775 22.0883 17.3008C22.0883 17.291 22.1078 17.291 22.1176 17.2812L28.3676 11.5703C28.8754 11.1116 29.666 11.1409 30.1348 11.6484C30.6035 12.1559 30.5645 12.9469 30.0566 13.4156L28.016 15.2805L39.391 24.507C40.3379 25.2877 40.9145 26.3422 41.1191 27.4742L47.5 27.4766C48.875 27.4766 50 26.3531 50 24.9781V12.5078C50 11.125 48.8828 10.0078 47.5 10.0078Z" fill="#DF0070"/>
</svg>
