<svg width="36" height="48" viewBox="0 0 36 48" fill="none" xmlns="http://www.w3.org/2000/svg">
<g clip-path="url(#clip0_2219_4222)">
<path d="M26.9999 33.5906C28.3106 32.8324 28.6434 30.7744 29.7074 29.7103C30.7715 28.6462 32.8293 28.3153 33.5877 27.0037C34.3359 25.7109 33.6033 23.7656 33.9977 22.2891C34.3781 20.8594 35.9156 19.5469 35.9156 18C35.9156 16.4531 34.2965 15.1388 33.9149 13.7128C33.5205 12.2362 34.2536 10.2909 33.5057 8.99813C32.7476 7.6875 30.6904 7.35563 29.6263 6.29156C28.5623 5.2275 28.2304 3.16969 26.9198 2.41125C25.627 1.66322 23.6816 2.3959 22.2051 2.00109C20.8593 1.61906 19.5468 0 17.9999 0C16.4531 0 15.1406 1.61906 13.7156 2.00063C12.2343 2.39438 10.2937 1.66219 8.99805 2.40938C7.68743 3.16781 7.35555 5.22563 6.29149 6.28875C5.22836 7.35281 3.16961 7.68469 2.41118 8.99531C1.66305 10.2844 2.39618 12.2344 2.00149 13.7062C1.61899 15.1406 0 16.4531 0 18C0 19.5469 1.61906 20.8612 2.00063 22.2872C2.39503 23.7638 1.66172 25.7091 2.40947 27.0019C3.16868 28.3125 5.22555 28.6406 6.28868 29.7094C7.35274 30.7734 7.68461 32.8312 8.99618 33.5906C10.289 34.3387 12.2334 33.6055 13.7099 34.0002C15.1406 34.3781 16.4531 36 17.9999 36C19.5468 36 20.8612 34.3809 22.2881 33.9994C23.7656 33.6094 25.7062 34.3406 26.9999 33.5906ZM10.4999 18C10.4999 13.8497 13.8571 10.5 17.9999 10.5C22.1427 10.5 25.4999 13.8497 25.4999 18C25.4999 22.1409 22.1427 25.5 17.9999 25.5C13.8571 25.5 10.4999 22.1437 10.4999 18ZM0.161081 40.6125C-0.143606 41.3801 -0.00588754 42.2513 0.524363 42.8859C1.05461 43.5188 1.88655 43.8139 2.69186 43.6498L6.92843 42.8028L8.93749 46.7656C9.3243 47.5312 10.0874 48 10.9406 48C10.9728 48 11.0028 47.9989 11.0351 47.9974C11.9257 47.9623 12.6897 47.4273 13.0263 46.6024L16.1744 38.9074C11.1391 38.4725 6.61193 36.2712 3.21818 32.9121L0.161081 40.6125ZM32.7749 32.9156C29.3859 36.2747 24.8577 38.4759 19.8187 38.9109L22.9668 46.6059C23.3037 47.4307 24.0674 47.9653 24.9581 48.0009C24.9937 47.9156 24.9468 48 25.0593 48C25.9119 48 26.6746 47.5338 27.0609 46.7681L29.0699 42.8044L33.3065 43.6514C34.1122 43.8155 34.9443 43.5203 35.474 42.8875C36.0042 42.2532 36.142 41.3819 35.8373 40.6141L32.7749 32.9156Z" fill="#DF0070"/>
</g>
<defs>
<clipPath id="clip0_2219_4222">
<rect width="36" height="48" fill="white"/>
</clipPath>
</defs>
</svg>
