<svg width="40" height="40" viewBox="0 0 40 40" fill="none" xmlns="http://www.w3.org/2000/svg">
<path d="M19.998 2.42969C8.95117 2.42969 0.0683597 9.70547 0.0683597 18.6797C0.0683597 22.5562 1.73633 26.1 4.51914 28.8906C3.54258 32.8266 0.279297 36.3336 0.240235 36.3727C0.0644534 36.5484 0.0156253 36.8206 0.123047 37.055C0.220703 37.2894 0.437188 37.4273 0.691094 37.4273C5.86688 37.4273 9.68328 34.9461 11.6755 33.4125C14.2247 34.3695 17.0677 34.9273 20.0661 34.9273C31.113 34.9273 39.9958 27.6516 39.9958 18.7477C39.9958 9.84375 31.0449 2.42969 19.998 2.42969ZM20.623 25H11.873C10.8418 25 9.99805 24.1641 9.99805 23.125C9.99805 22.0859 10.8418 21.25 11.873 21.25H20.623C21.6621 21.25 22.498 22.0937 22.498 23.125C22.498 24.1562 21.6621 25 20.623 25ZM28.123 17.5H11.873C10.8418 17.5 9.99805 16.6641 9.99805 15.625C9.99805 14.5859 10.8418 13.75 11.873 13.75H28.123C29.1621 13.75 29.998 14.5937 29.998 15.625C29.998 16.6562 29.1621 17.5 28.123 17.5Z" fill="#DF0070"/>
</svg>
