<svg viewBox="0 0 40 40" fill="none" xmlns="http://www.w3.org/2000/svg">
    <g clip-path="url(#clip0_3210_3789)">
        <path d="M34.4531 4.60156L35.3984 5.54688C36.1328 6.28125 36.1328 7.46875 35.3984 8.19531L33.125 10.4766L29.5234 6.875L31.7969 4.60156C32.5312 3.86719 33.7188 3.86719 34.4453 4.60156H34.4531ZM16.3906 20.0156L26.875 9.52344L30.4766 13.125L19.9844 23.6094C19.7578 23.8359 19.4766 24 19.1719 24.0859L14.6016 25.3906L15.9062 20.8203C15.9922 20.5156 16.1562 20.2344 16.3828 20.0078L16.3906 20.0156ZM29.1484 1.95312L13.7344 17.3594C13.0547 18.0391 12.5625 18.875 12.3047 19.7891L10.0703 27.6016C9.88281 28.2578 10.0625 28.9609 10.5469 29.4453C11.0312 29.9297 11.7344 30.1094 12.3906 29.9219L20.2031 27.6875C21.125 27.4219 21.9609 26.9297 22.6328 26.2578L38.0469 10.8516C40.2422 8.65625 40.2422 5.09375 38.0469 2.89844L37.1016 1.95312C34.9062 -0.242188 31.3438 -0.242188 29.1484 1.95312ZM6.875 5C3.07812 5 0 8.07812 0 11.875V33.125C0 36.9219 3.07812 40 6.875 40H28.125C31.9219 40 35 36.9219 35 33.125V24.375C35 23.3359 34.1641 22.5 33.125 22.5C32.0859 22.5 31.25 23.3359 31.25 24.375V33.125C31.25 34.8516 29.8516 36.25 28.125 36.25H6.875C5.14844 36.25 3.75 34.8516 3.75 33.125V11.875C3.75 10.1484 5.14844 8.75 6.875 8.75H15.625C16.6641 8.75 17.5 7.91406 17.5 6.875C17.5 5.83594 16.6641 5 15.625 5H6.875Z" fill="#DF0070" />
    </g>
    <defs>
        <clipPath id="clip0_3210_3789">
            <rect width="40" height="40" fill="white" />
        </clipPath>
    </defs>
</svg>