<svg viewBox="0 0 40 40" fill="none" xmlns="http://www.w3.org/2000/svg">
    <path d="M13 0C14.0391 0 14.875 0.835938 14.875 1.875V5H26.125V1.875C26.125 0.835938 26.9609 0 28 0C29.0391 0 29.875 0.835938 29.875 1.875V5H33C35.7578 5 38 7.24219 38 10V11.25V15V35C38 37.7578 35.7578 40 33 40H8C5.24219 40 3 37.7578 3 35V15V11.25V10C3 7.24219 5.24219 5 8 5H11.125V1.875C11.125 0.835938 11.9609 0 13 0ZM34.25 15H6.75V35C6.75 35.6875 7.3125 36.25 8 36.25H33C33.6875 36.25 34.25 35.6875 34.25 35V15ZM11.75 20H19.25C19.9375 20 20.5 20.5625 20.5 21.25V28.75C20.5 29.4375 19.9375 30 19.25 30H11.75C11.0625 30 10.5 29.4375 10.5 28.75V21.25C10.5 20.5625 11.0625 20 11.75 20Z" fill="#DF0070" />
</svg>